<svg xmlns="http://www.w3.org/2000/svg" width="780" height="248" viewBox="0 0 780 248">
<style>text{font-family:Arial,sans-serif;fill:#10203d}.label{font-size:14px}.title{font-size:20px;font-weight:700}.legend{font-size:12px}.value{font-size:12px;font-weight:700}</style>
<text class="title" x="220" y="30">Coach Popup Performance</text>
<rect x="220" y="38" width="14" height="14" fill="#7aa6ff" rx="3"/>
<text class="legend" x="242" y="50">Baseline</text>
<rect x="340" y="38" width="14" height="14" fill="#0e699b" rx="3"/>
<text class="legend" x="362" y="50">Coach</text>
<text class="label" x="20" y="78">Popup render rate</text>
<rect x="220" y="62" width="0.00" height="16" fill="#7aa6ff" rx="4"/>
<text class="value" x="228.00" y="75">0.00</text>
<rect x="489" y="62" width="0.00" height="16" fill="#0e699b" rx="4"/>
<text class="value" x="497.00" y="75">0.00</text>
<text class="label" x="20" y="134">Popup CTA count</text>
<rect x="220" y="118" width="0.00" height="16" fill="#7aa6ff" rx="4"/>
<text class="value" x="228.00" y="131">0.00</text>
<rect x="489" y="118" width="0.00" height="16" fill="#0e699b" rx="4"/>
<text class="value" x="497.00" y="131">0.00</text>
<text class="label" x="20" y="190">Popup dismiss count</text>
<rect x="220" y="174" width="0.00" height="16" fill="#7aa6ff" rx="4"/>
<text class="value" x="228.00" y="187">0.00</text>
<rect x="489" y="174" width="0.00" height="16" fill="#0e699b" rx="4"/>
<text class="value" x="497.00" y="187">0.00</text>
</svg>